HIERARCHY
ROOT Hips
{
 OFFSET 0.000000 0.000000 0.000000
 CHANNELS 6 Xposition Yposition Zposition Yrotation Xrotation Zrotation
 JOINT Chest
 {
  OFFSET 0.000000 10.354800 0.006500
  CHANNELS 3 Yrotation Xrotation Zrotation
  JOINT Chest2
  {
   OFFSET 0.000000 10.435800 -0.013200
   CHANNELS 3 Yrotation Xrotation Zrotation
   JOINT Chest3
   {
    OFFSET 0.000000 10.393700 0.000000
    CHANNELS 3 Yrotation Xrotation Zrotation
    JOINT Chest4
    {
     OFFSET 0.000000 10.383100 0.000000
     CHANNELS 3 Yrotation Xrotation Zrotation
     JOINT Neck
     {
      OFFSET 0.000000 15.694000 0.000000
      CHANNELS 3 Yrotation Xrotation Zrotation
      JOINT Head
      {
       OFFSET 0.000000 9.711000 -0.028000
       CHANNELS 3 Yrotation Xrotation Zrotation
       End Site
       {
        OFFSET 0.000000 18.578700 -0.014800
       }
      }
     }
     JOINT RightCollar
     {
      OFFSET -3.157200 10.367500 0.000000
      CHANNELS 3 Yrotation Xrotation Zrotation
      JOINT RightShoulder
      {
       OFFSET -14.482500 0.000000 0.000000
       CHANNELS 3 Yrotation Xrotation Zrotation
       JOINT RightElbow
       {
        OFFSET 0.000000 -31.707800 0.000000
        CHANNELS 3 Yrotation Xrotation Zrotation
        JOINT RightWrist
        {
         OFFSET 0.000000 -25.659300 0.000000
         CHANNELS 3 Yrotation Xrotation Zrotation
         End Site
         {
          OFFSET 0.000000 -18.994300 0.000000
         }
        }
       }
      }
     }
     JOINT LeftCollar
     {
      OFFSET 3.157200 10.367500 0.000000
      CHANNELS 3 Yrotation Xrotation Zrotation
      JOINT LeftShoulder
      {
       OFFSET 14.482500 0.000000 0.000000
       CHANNELS 3 Yrotation Xrotation Zrotation
       JOINT LeftElbow
       {
        OFFSET 0.000000 -31.707800 0.000000
        CHANNELS 3 Yrotation Xrotation Zrotation
        JOINT LeftWrist
        {
         OFFSET 0.000000 -25.659300 0.000000
         CHANNELS 3 Yrotation Xrotation Zrotation
         End Site
         {
          OFFSET 0.000000 -18.994300 0.000000
         }
        }
       }
      }
     }
    }
   }
  }
 }
 JOINT RightHip
 {
  OFFSET -8.365600 -0.032100 -0.003200
  CHANNELS 3 Yrotation Xrotation Zrotation
  JOINT RightKnee
  {
   OFFSET 0.000000 -43.980000 0.003100
   CHANNELS 3 Yrotation Xrotation Zrotation
   JOINT RightAnkle
   {
    OFFSET 0.000000 -42.882800 0.005200
    CHANNELS 3 Yrotation Xrotation Zrotation
    JOINT RightToe
    {
     OFFSET 0.000000 -4.915500 10.826300
     CHANNELS 3 Yrotation Xrotation Zrotation
     End Site
     {
      OFFSET 0.000000 -1.517500 6.175900
     }
    }
   }
  }
 }
 JOINT LeftHip
 {
  OFFSET 8.365600 -0.032100 -0.003200
  CHANNELS 3 Yrotation Xrotation Zrotation
  JOINT LeftKnee
  {
   OFFSET 0.000000 -43.980000 0.003100
   CHANNELS 3 Yrotation Xrotation Zrotation
   JOINT LeftAnkle
   {
    OFFSET 0.000000 -42.882800 0.005200
    CHANNELS 3 Yrotation Xrotation Zrotation
    JOINT LeftToe
    {
     OFFSET 0.000000 -4.915500 10.826300
     CHANNELS 3 Yrotation Xrotation Zrotation
     End Site
     {
      OFFSET 0.000000 -1.517500 6.175900
     }
    }
   }
  }
 }
}
MOTION
Frames: 7
Frame Time: 0.008333
0.000000 91.618600 0.000000 0.000000 -5.767877 0.000000 0.000000 11.653817 0.000000 0.000000 -5.885947 0.000000 0.000000 -0.000000 0.000000 0.000000 -0.000000 0.000000 0.000000 12.528835 0.000000 0.000000 0.711642 0.000000 0.000000 -0.000000 0.000000 0.000000 0.000000 -90.000000 0.000000 -2.309062 0.000000 0.000000 2.309062 0.000000 0.000000 -0.000000 0.000000 0.000000 -0.000000 90.000000 0.000000 -2.309062 0.000000 0.000000 2.309062 0.000000 0.000000 8.520406 0.000000 0.000000 1.905762 0.000000 -0.000000 -4.658285 0.000000 0.000000 -0.000000 0.000000 0.000000 8.520406 0.000000 0.000000 1.905762 0.000000 -0.000000 -4.658285 0.000000 0.000000 -0.000000 0.000000
-9.680884 147.540360 13.318735 177.427178 -26.803412 -2.720778 0.385404 16.133709 2.884094 0.003783 1.602741 0.283803 0.001540 2.696707 0.484016 0.275575 14.245577 2.602290 -3.169062 23.174429 -4.635147 -2.358012 -0.798502 -4.341950 4.936490 2.358507 -3.317332 18.828450 -19.181499 -7.072416 45.585495 -40.501166 -27.191980 1.405971 -9.242858 -19.153979 -5.840064 6.413270 0.518570 -10.218048 -24.688993 1.554484 -47.494800 -34.055557 40.529113 -9.537563 4.489417 15.659930 3.708193 -51.959671 2.264746 -151.116663 78.856745 -145.960026 2.325758 -21.939672 -0.164336 0.008696 -0.059713 0.011318 -7.181939 -49.884717 7.726757 150.256662 77.287388 145.930923 -2.589980 -24.356256 1.110333 0.014888 0.080031 0.012360
-8.783835 140.999289 13.056476 177.445434 -26.800219 -2.753503 0.383413 16.118381 2.904249 0.002491 1.602709 0.281579 -0.002181 2.704644 0.491423 0.283213 14.228783 2.591257 -3.163067 23.152982 -4.635664 -2.353941 -0.819614 -4.342906 4.930866 2.369650 -3.308765 18.856019 -19.178502 -7.093246 45.548104 -40.499541 -27.168509 1.385017 -9.256190 -19.143774 -5.846640 6.415849 0.522002 -10.204050 -24.672468 1.550738 -47.496003 -34.065483 40.540430 -9.527373 4.462909 15.647939 3.669068 -51.982872 2.293320 -151.126309 78.838745 -145.967986 2.335486 -21.957570 -0.162842 0.005227 -0.050842 0.002372 -7.227050 -49.878765 7.767172 150.183585 77.304246 145.852738 -2.578314 -24.316223 1.108526 0.011753 0.061253 0.005340
-8.046124 135.612577 12.840425 177.466820 -26.798102 -2.776880 0.372187 16.106005 2.908472 0.005333 1.600384 0.281963 -0.003022 2.702695 0.490408 0.287756 14.226388 2.590451 -3.156166 23.129172 -4.636541 -2.351895 -0.839361 -4.344076 4.925888 2.377380 -3.300272 18.872738 -19.171385 -7.116003 45.524464 -40.512425 -27.149445 1.369899 -9.262672 -19.136364 -5.842475 6.414134 0.521707 -10.180193 -24.653827 1.541103 -47.523879 -34.076839 40.558190 -9.516026 4.443758 15.642874 3.625098 -52.000215 2.319174 -151.145526 78.825240 -145.993302 2.327930 -21.976964 -0.160649 0.004975 -0.032481 0.002258 -7.260276 -49.874403 7.790871 150.084292 77.322480 145.750764 -2.604490 -24.277997 1.115683 0.004837 0.042997 0.002197
-7.509703 131.722084 12.685314 177.484514 -26.792691 -2.814164 0.371229 16.092016 2.934167 0.002237 1.602941 0.283981 0.004000 2.687315 0.479054 0.283977 14.240007 2.600836 -3.150490 23.099547 -4.645803 -2.349257 -0.858749 -4.345170 4.941760 2.354045 -3.325706 18.862369 -19.147216 -7.098947 45.506862 -40.522406 -27.141482 1.355060 -9.269056 -19.128020 -5.839726 6.405388 0.512613 -10.152576 -24.635001 1.536748 -47.557885 -34.084348 40.569145 -9.497425 4.429341 15.643975 3.563265 -52.021799 2.372933 -151.120455 78.814340 -145.977381 2.330637 -21.991422 -0.156507 0.000828 -0.011859 0.000376 -7.315709 -49.880286 7.843925 150.031559 77.333115 145.693449 -2.607176 -24.227608 1.115145 0.001665 0.014110 0.000756
-7.173180 129.265127 12.586779 177.489963 -26.791942 -2.821275 0.371153 16.085194 2.935288 -0.000408 1.607199 0.287284 0.005451 2.681769 0.472100 0.284348 14.240338 2.602834 -3.147401 23.041601 -4.670656 -2.343573 -0.846685 -4.330751 4.947775 2.353592 -3.324509 18.856635 -19.142438 -7.112765 45.503272 -40.530449 -27.128026 1.341394 -9.277369 -19.121224 -5.832523 6.397598 0.502211 -10.128809 -24.619580 1.529914 -47.593547 -34.089372 40.582507 -9.493749 4.427406 15.635983 3.544833 -52.034737 2.386238 -151.050103 78.808472 -145.916468 2.339563 -21.982318 -0.152904 0.001078 -0.006782 0.000489 -7.327660 -49.881961 7.853948 149.971968 77.346203 145.628126 -2.610865 -24.201333 1.115955 0.001794 0.010333 0.000815
-6.987807 127.913607 12.533095 177.488949 -26.787370 -2.823670 0.373324 16.076334 2.931576 -0.000158 1.605583 0.286665 0.007914 2.683449 0.471600 0.284926 14.230289 2.598370 -3.145903 23.027884 -4.671431 -2.340839 -0.870700 -4.330489 4.951978 2.360624 -3.315042 18.858646 -19.131933 -7.127314 45.497087 -40.543244 -27.121106 1.333020 -9.286412 -19.117339 -5.831030 6.399447 0.495883 -10.096230 -24.598797 1.520989 -47.632381 -34.112346 40.610576 -9.504732 4.432973 15.613438 3.538461 -52.047593 2.394628 -150.955950 78.811158 -145.830289 2.339903 -21.969151 -0.143499 -0.000594 -0.001523 -0.000270 -7.331290 -49.890011 7.864008 149.923649 77.359889 145.577754 -2.667032 -24.175489 1.137642 -0.002987 0.008767 -0.001356
